<?xml version="1.0" encoding="utf-8"?>
<!-- Generator: Adobe Illustrator 19.0.0, SVG Export Plug-In . SVG Version: 6.00 Build 0)  -->
<svg version="1.1" id="Layer_1" xmlns="http://www.w3.org/2000/svg" xmlns:xlink="http://www.w3.org/1999/xlink" x="0px" y="0px"
	 viewBox="-41 237.6 528.8 319.4" style="enable-background:new -41 237.6 528.8 319.4;" xml:space="preserve">
<style type="text/css">
	.st0{fill:#FFFFFF;stroke:#000000;stroke-miterlimit:10;}
	.st1{fill:#FFFFFF;stroke:#000000;stroke-width:1.5;stroke-miterlimit:10;}
	.st2{font-family:'KozGoPr6N-Regular-83pv-RKSJ-H';}
	.st3{font-size:12px;}
	.st4{fill:none;}
	.st5{enable-background:new    ;}
	.st6{fill:#A7A5A6;stroke:#B8B5B5;stroke-width:0.5;stroke-miterlimit:10;}
	.st7{fill:#7B7979;stroke:#000000;stroke-width:0.5;stroke-miterlimit:10;}
</style>
<path class="st0" d="M429.3,81.3"/>
<polyline class="st1" points="46.5,251.4 46.5,516.4 427.8,516.4 "/>
<path class="st0" d="M382.8,332"/>
<text transform="matrix(1 0 0 1 9.625 256.975)" class="st2 st3">状態</text>
<rect x="395.2" y="529.5" class="st4" width="45" height="39.4"/>
<text transform="matrix(1 0 0 1 395.25 539.0746)" class="st2 st3">時間</text>
<polyline class="st0" points="58.9,455.1 143,455.1 143,397.3 263.3,398.2 263.3,303.8 410.2,303.8 "/>
<polyline class="st1" points="41,602.6 41,867.6 422.2,867.6 "/>
<path class="st0" d="M377.2,683.2"/>
<text transform="matrix(1 0 0 1 4.125 608.2239)" class="st2 st3">状態</text>
<rect x="389.8" y="880.7" class="st4" width="45" height="39.4"/>
<polyline class="st0" points="41,806.3 128.5,806.3 128.5,749.5 245.4,749.5 245.4,655.1 392.2,655.1 "/>
<path class="st0" d="M76,251.4"/>
<line class="st6" x1="63" y1="251.4" x2="63" y2="516.4"/>
<line class="st6" x1="83" y1="251.4" x2="83" y2="516.4"/>
<line class="st6" x1="103" y1="251.4" x2="103" y2="516.4"/>
<line class="st6" x1="123" y1="251.4" x2="123" y2="516.4"/>
<line class="st6" x1="143" y1="251.4" x2="143" y2="516.4"/>
<line class="st6" x1="163" y1="251.4" x2="163" y2="516.4"/>
<line class="st6" x1="183" y1="251.4" x2="183" y2="516.4"/>
<line class="st6" x1="203" y1="251.4" x2="203" y2="516.4"/>
<line class="st6" x1="223" y1="251.4" x2="223" y2="516.4"/>
<line class="st6" x1="243" y1="251.4" x2="243" y2="516.4"/>
<line class="st6" x1="263" y1="251.4" x2="263" y2="516.4"/>
<line class="st6" x1="283" y1="251.4" x2="283" y2="516.4"/>
<line class="st6" x1="303" y1="251.4" x2="303" y2="516.4"/>
<line class="st6" x1="323" y1="251.4" x2="323" y2="516.4"/>
<line class="st6" x1="343" y1="251.4" x2="343" y2="516.4"/>
<line class="st6" x1="363" y1="251.4" x2="363" y2="516.4"/>
<line class="st6" x1="383" y1="251.4" x2="383" y2="516.4"/>
<line class="st6" x1="403" y1="251.4" x2="403" y2="516.4"/>
<path class="st7" d="M803,9.6"/>
<path class="st7" d="M63,357.6"/>
</svg>
