<?xml version="1.0" encoding="utf-8"?>
<!-- Generator: Adobe Illustrator 19.0.0, SVG Export Plug-In . SVG Version: 6.00 Build 0)  -->
<svg version="1.1" id="Layer_1" xmlns="http://www.w3.org/2000/svg" xmlns:xlink="http://www.w3.org/1999/xlink" x="0px" y="0px"
	 viewBox="0 0 528.8 319.4" style="enable-background:new 0 0 528.8 319.4;" xml:space="preserve">
<style type="text/css">
	.st0{fill:#FFFFFF;stroke:#000000;stroke-miterlimit:10;}
	.st1{fill:#FFFFFF;stroke:#000000;stroke-width:1.5;stroke-miterlimit:10;}
	.st2{font-family:'KozGoPr6N-Regular-83pv-RKSJ-H';}
	.st3{font-size:12px;}
	.st4{fill:none;}
</style>
<path class="st0" d="M470.3-156.3"/>
<polyline class="st1" points="87.5,13.7 87.5,278.8 468.8,278.8 "/>
<path class="st0" d="M423.8,94.4"/>
<text transform="matrix(1 0 0 1 50.625 19.375)" class="st2 st3">状態</text>
<rect x="436.2" y="291.9" class="st4" width="45" height="39.4"/>
<text transform="matrix(1 0 0 1 436.25 301.4746)" class="st2 st3">時間</text>
<polyline class="st1" points="82,365 82,630 463.2,630 "/>
<path class="st0" d="M418.2,445.6"/>
<text transform="matrix(1 0 0 1 45.125 370.6239)" class="st2 st3">状態</text>
<rect x="430.8" y="643.1" class="st4" width="45" height="39.4"/>
<polyline class="st0" points="82,568.7 169.5,568.7 169.5,511.9 286.4,511.9 286.4,417.5 433.2,417.5 "/>
<path class="st1" d="M87.5,194.5"/>
<path class="st1" d="M87.5,191.6c2.1,0,95.6-92.7,140.9-70.1s69.2,124.4,122.6,110.7c53.4-13.7,104.7-96.6,104.7-96.6"/>
<path class="st1" d="M370.7,315.9"/>
</svg>
